<svg width="192" height="181" viewBox="0 0 192 181" fill="none" xmlns="http://www.w3.org/2000/svg">
<path fill-rule="evenodd" clip-rule="evenodd" d="M10.6558 160.829V57.349H181.96V160.829C181.96 166.708 177.658 171.106 173.93 171.106H18.6857C15.0531 171.106 10.6558 166.9 10.6558 160.829ZM0.857422 31.0129V159.491C0.857422 171.87 8.83951 180.952 18.6857 180.952H173.93C179.475 180.952 184.254 177.415 186.979 174.356C190.181 170.771 191.806 166.087 191.806 159.491V31.0129C191.806 18.6813 184.732 9.59985 172.162 9.59985C172.162 22.4572 171.588 18.3467 175.746 19.8762C179.666 21.2623 181.96 25.0861 181.96 29.6746V47.5506H10.6558V29.6746C10.6558 25.0861 12.9978 21.2623 16.8694 19.8762C21.0277 18.3467 20.4542 22.4572 20.4542 9.59985C7.93137 9.59985 0.857422 18.6813 0.857422 31.0129Z" fill="white"/>
<path fill-rule="evenodd" clip-rule="evenodd" d="M48.5605 19.3982H144.059V9.59985H48.5605V19.3982Z" fill="white"/>
<path fill-rule="evenodd" clip-rule="evenodd" d="M29.827 85.8836H48.5635V95.2518H29.827V85.8836ZM20.0287 85.4534C20.0287 93.1487 18.2602 105.098 30.7352 105.098H47.7031C60.1303 105.098 58.4096 93.1487 58.4096 85.4534C58.4096 80.5781 53.8689 76.0852 49.0414 76.0852H29.3969C24.5216 76.0852 20.0287 80.5781 20.0287 85.4534Z" fill="white"/>
<path fill-rule="evenodd" clip-rule="evenodd" d="M86.9403 85.8836H105.677V95.2518H86.9403V85.8836ZM77.142 85.4534C77.142 93.1487 75.3735 105.098 87.8485 105.098H104.769C117.244 105.098 115.523 93.1487 115.523 85.4534C115.523 80.5781 110.982 76.0852 106.107 76.0852H86.5102C81.6349 76.0852 77.142 80.5781 77.142 85.4534Z" fill="white"/>
<path fill-rule="evenodd" clip-rule="evenodd" d="M144.053 85.8836H162.789V95.2518H144.053V85.8836ZM134.254 85.4534C134.254 93.1487 132.486 105.098 144.961 105.098H161.881C174.356 105.098 172.587 93.1487 172.587 85.4534C172.587 80.5781 168.095 76.0852 163.219 76.0852H143.622C138.747 76.0852 134.254 80.5781 134.254 85.4534Z" fill="white"/>
<path fill-rule="evenodd" clip-rule="evenodd" d="M144.055 133.633H162.792V142.571H144.055V133.633ZM134.257 133.203V143.002C134.257 147.781 138.32 152.37 143.147 152.37H163.7C168.432 152.37 172.59 147.781 172.59 143.002V133.203C172.59 128.423 168.527 123.835 163.7 123.835H143.147C138.32 123.835 134.257 128.423 134.257 133.203Z" fill="white"/>
<path fill-rule="evenodd" clip-rule="evenodd" d="M29.8199 133.633H48.5563V142.571H29.8199V133.633ZM20.0215 133.203V143.002C20.0215 147.781 24.132 152.37 28.9595 152.37H49.4644C54.1963 152.37 58.4024 147.781 58.4024 143.002V133.203C58.4024 128.423 54.2919 123.835 49.4644 123.835H28.9595C24.132 123.835 20.0215 128.423 20.0215 133.203Z" fill="white"/>
<path fill-rule="evenodd" clip-rule="evenodd" d="M86.9419 133.633H105.678V142.571H86.9419V133.633ZM77.1436 133.203V143.002C77.1436 147.781 81.2063 152.37 86.0338 152.37H106.586C111.318 152.37 115.525 147.781 115.525 143.002V133.203C115.525 128.423 111.414 123.835 106.586 123.835H86.0338C81.2063 123.835 77.1436 128.423 77.1436 133.203Z" fill="white"/>
<path fill-rule="evenodd" clip-rule="evenodd" d="M29.39 6.01556C29.39 10.4607 28.6731 23.8438 30.346 26.4727C33.0704 30.7744 39.1884 28.4323 39.1884 24.3218V4.24707C39.1884 -1.24958 29.39 -2.15772 29.39 6.01556Z" fill="white"/>
<path fill-rule="evenodd" clip-rule="evenodd" d="M153.421 4.24707V24.3218C153.421 29.5795 163.219 31.6825 163.219 22.1231V6.01556C163.219 -2.15772 153.421 -1.24958 153.421 4.24707Z" fill="white"/>
</svg>
