<svg width="291" height="181" viewBox="0 0 291 181" fill="none" xmlns="http://www.w3.org/2000/svg">
<path fill-rule="evenodd" clip-rule="evenodd" d="M96.9803 144.242C96.9803 131.136 102.231 120.656 113.815 117.302C118.228 116.022 121.581 116.221 127.34 116.221C128.024 119.2 140.975 141.285 141.924 145.411H148.94C150.131 142.918 150.904 140.8 152.227 138.196C154.103 134.49 162.95 118.67 163.524 116.221C178.395 116.221 186.029 118.692 191.743 130.606C195.097 137.578 193.883 162.268 193.883 171.667H96.9803V144.242ZM87.6475 143.072V181H203.216V141.307C203.216 122.068 189.073 106.888 169.944 106.888C154.323 106.888 159.354 105.167 152.249 118.361C150.44 121.715 146.866 127.187 146.005 130.805H144.836C143.689 125.863 134.312 111.786 133.165 106.888C119.794 106.888 110.307 105.851 99.8045 114.368C91.2438 121.34 87.6475 131.401 87.6475 143.072Z" fill="white"/>
<path fill-rule="evenodd" clip-rule="evenodd" d="M0.0957031 114.477V148.323C0.0957031 149.669 0.492847 150.066 1.83872 150.066H78.8846V140.159H10.0022V105.718C10.0022 102.96 11.5025 99.7829 12.5175 97.7089C13.3559 96.0321 13.4221 95.8335 14.5252 94.4656C22.0268 85.221 28.0723 85.2872 38.6186 85.2872C40.6485 85.2872 42.4356 90.6927 43.274 92.3034L51.7905 108.299C54.5485 112.911 53.3791 114.477 59.6231 114.477C61.9177 114.477 67.213 102.695 68.3823 100.467C69.662 97.9958 70.7431 95.7232 72.0669 93.0535C73.4128 90.3397 75.2882 88.1996 75.9722 85.2872C84.3784 85.2872 89.6074 85.0445 94.9027 88.5305C98.5432 90.9354 104.147 95.988 104.567 101.041C106.508 100.886 112.377 98.8562 113.899 98.1281C110.149 90.2735 108.141 85.4637 99.1389 80.1905C90.0487 74.8952 83.6944 75.9322 70.1253 75.9322C69.5296 78.5137 63.3518 89.4792 61.1896 93.8478C58.8067 98.6135 59.6672 98.6577 57.2844 99.2975C56.5121 95.988 46.2085 78.4916 45.6128 75.9322C32.7718 75.9322 21.2326 74.6084 11.5908 83.9634C3.38317 91.9283 0.0957031 98.6135 0.0957031 114.477Z" fill="white"/>
<path fill-rule="evenodd" clip-rule="evenodd" d="M176.939 98.1298C178.484 98.8579 184.353 100.888 186.294 101.042C186.714 96.0338 192.296 90.8047 195.87 88.4439C201.474 84.7593 206.152 85.2889 214.889 85.2889L222.655 100.866C224.089 103.69 225.303 105.477 226.759 108.433C229.252 113.508 229.407 114.479 234.724 114.479C236.577 114.479 242.424 102.035 243.483 99.8729L249.506 88.3778C251.316 84.5387 250.168 85.2889 259.258 85.2889C270.18 85.2889 280.837 95.9455 280.837 106.889V140.161H211.976V150.067H289.022C290.368 150.067 290.765 149.67 290.765 148.324V114.479C290.765 98.6152 287.478 91.93 279.248 83.9651C269.474 74.4557 257.207 75.9339 245.248 75.9339C244.917 77.1474 234.106 98.6373 232.407 99.8729C231.878 97.6224 227.972 90.2311 226.671 88.0909C225.281 85.8184 221.287 78.383 220.736 75.9339C207.806 75.9339 193.443 74.0806 183.117 87.3628C177.976 93.9819 180.227 91.2901 176.939 98.1298Z" fill="white"/>
<path fill-rule="evenodd" clip-rule="evenodd" d="M122.656 63.0936C122.656 51.6867 133.114 40.9197 142.513 40.9197C150.346 40.9197 155.553 40.8756 162.216 48.0683C178.322 65.4103 157.318 96.3654 147.169 96.3654C142.182 96.3654 139.822 96.2771 135.056 91.5776C132.386 88.93 131.173 87.2973 129.187 84.0098C126.142 78.9793 122.656 70.9482 122.656 63.0936ZM113.323 62.5199C113.323 93.1662 145.051 125.401 168.085 91.5997C178.433 76.42 182.559 54.9742 168.063 40.4564C165.614 38.0074 162.084 35.6907 158.664 34.1021C137.306 24.1735 113.323 40.7212 113.323 62.5199Z" fill="white"/>
<path fill-rule="evenodd" clip-rule="evenodd" d="M233.582 65.4318C220.234 65.4318 210.217 44.8686 210.217 30.9906C210.217 15.0166 232.258 -0.42786 249.777 17.1126C254.255 21.6136 256.043 28.3209 255.182 36.2638C254.454 42.949 251.144 49.877 248.166 54.3559C245.651 58.1729 239.539 65.4318 233.582 65.4318ZM200.884 30.9906C200.884 51.4435 215.6 74.7867 231.817 74.7867C243.025 74.7867 250.041 68.5648 255.998 59.8497C265.751 45.5746 269.876 23.8641 255.91 9.83168C234.575 -11.592 200.884 5.26453 200.884 30.9906Z" fill="white"/>
<path fill-rule="evenodd" clip-rule="evenodd" d="M57.8827 9.41196C70.6575 9.41196 80.6302 19.3626 80.6302 32.7552C80.6302 45.3755 69.6646 65.4312 57.8827 65.4312C46.2994 65.4312 32.0904 42.6176 36.1281 26.1802C36.8562 23.2458 38.7536 19.5612 40.4966 17.7078C44.5784 13.3172 49.6751 9.41196 57.8827 9.41196ZM25.7803 31.5858C25.7803 49.0601 38.7536 74.7862 59.0521 74.7862C75.2688 74.7862 89.9851 51.443 89.9851 30.9901C89.9851 4.27116 55.6322 -10.732 35.5324 9.23545C30.7004 14.0453 25.7803 22.2529 25.7803 31.5858Z" fill="white"/>
</svg>
