<svg width="181" height="181" viewBox="0 0 181 181" fill="none" xmlns="http://www.w3.org/2000/svg">
<path fill-rule="evenodd" clip-rule="evenodd" d="M5.34374 0.0476074H175.609C178.548 0.0476074 180.952 2.45229 180.952 5.39135V175.656C180.952 178.595 178.548 181 175.609 181H5.34374C2.40468 181 0 178.595 0 175.656V5.39135C0 2.45229 2.40468 0.0476074 5.34374 0.0476074ZM57.0043 114.444H10.6073V10.7351H57.0043V114.444ZM170.278 170.646H123.881V66.9245H170.278V170.646ZM114.035 124.249V170.646H10.3268V124.249H114.035ZM170.278 10.7351V57.1187H66.5563V10.7351H170.278ZM66.5563 66.9245H113.635V114.43H66.5563V66.9245Z" fill="white"/>
</svg>
