<svg width="29" height="29" viewBox="0 0 29 29" fill="none" xmlns="http://www.w3.org/2000/svg">
<path d="M22.1922 5.18188C21.2395 5.18188 20.4727 5.94871 20.4727 6.8782C20.4727 7.80769 21.2395 8.57451 22.1922 8.57451C23.1217 8.57451 23.8885 7.80769 23.8885 6.8782C23.8885 5.94871 23.1217 5.18188 22.1922 5.18188Z" fill="#EEECDD"/>
<path d="M14.6172 19.078C12.1076 19.078 10.0395 17.0331 10.0395 14.5003C10.0395 11.9674 12.1076 9.92254 14.6172 9.92254C17.1501 9.92254 19.1949 11.9674 19.1949 14.5003C19.1949 17.0331 17.1501 19.078 14.6172 19.078ZM14.6172 7.36646C10.6901 7.36646 7.4834 10.5732 7.4834 14.5003C7.4834 18.4274 10.6901 21.6341 14.6172 21.6341C18.5675 21.6341 21.7743 18.4274 21.7743 14.5003C21.7743 10.5732 18.5675 7.36646 14.6172 7.36646Z" fill="#EEECDD"/>
<path d="M8.71394 2.71875C5.41426 2.71875 2.71875 5.41426 2.71875 8.71394V20.2861C2.71875 23.5857 5.41426 26.2813 8.71394 26.2813H20.2861C23.5857 26.2813 26.2813 23.5857 26.2813 20.2861V8.71394C26.2813 5.41426 23.5857 2.71875 20.2861 2.71875H8.71394ZM20.2861 29H8.71394C3.90385 29 0 25.0962 0 20.2861V8.71394C0 3.90385 3.90385 0 8.71394 0H20.2861C25.0962 0 29 3.90385 29 8.71394V20.2861C29 25.0962 25.0962 29 20.2861 29Z" fill="#EEECDD"/>
</svg>
