<svg width="15" height="20" viewBox="0 0 15 20" fill="none" xmlns="http://www.w3.org/2000/svg">
<path d="M7.5 1.33462C4.10542 1.33462 1.33462 4.10542 1.33462 7.5C1.33462 10.1547 5.41102 15.2756 7.5 17.6257C9.58897 15.2756 13.6654 10.1547 13.6654 7.5C13.6654 4.10542 10.8946 1.33462 7.5 1.33462ZM7.5 19.294C7.31141 19.294 7.13733 19.2215 7.00677 19.0909C6.73114 18.7718 0 11.4894 0 7.5C0 3.36557 3.36557 0 7.5 0C11.6344 0 15 3.36557 15 7.5C15 11.4894 8.28337 18.7718 7.99323 19.0909C7.86267 19.2215 7.68859 19.294 7.5 19.294Z" fill="#FEFEFE"/>
<path d="M7.49922 5.1354C6.3822 5.1354 5.46827 6.04933 5.46827 7.16635C5.46827 8.29788 6.3822 9.21181 7.49922 9.21181C8.63075 9.21181 9.54467 8.29788 9.54467 7.16635C9.54467 6.04933 8.63075 5.1354 7.49922 5.1354ZM7.49922 10.5464C5.64235 10.5464 4.11914 9.03773 4.11914 7.16635C4.11914 5.30949 5.64235 3.80078 7.49922 3.80078C9.37059 3.80078 10.8793 5.30949 10.8793 7.16635C10.8793 9.03773 9.37059 10.5464 7.49922 10.5464Z" fill="#FEFEFE"/>
</svg>
