<svg width="15" height="12" viewBox="0 0 15 12" fill="none" xmlns="http://www.w3.org/2000/svg">
<path d="M13.9701 9.61567C13.9701 10.2425 13.4552 10.7463 12.8396 10.7463H2.16045C1.53358 10.7463 1.02985 10.2425 1.02985 9.61567V2.16045C1.02985 2.01493 1.06343 1.8694 1.1194 1.73507L5.6306 6.86194C6.10075 7.38806 6.78358 7.70149 7.5 7.70149C8.21642 7.70149 8.89925 7.38806 9.3694 6.86194L13.8806 1.73507C13.9366 1.8694 13.9701 2.01493 13.9701 2.16045V9.61567ZM12.8396 1.02985C12.9291 1.02985 13.0075 1.04104 13.097 1.06343L8.58582 6.16791C8.31716 6.48134 7.91418 6.66045 7.5 6.66045C7.08582 6.66045 6.68284 6.48134 6.40299 6.16791L1.90299 1.06343C1.99254 1.04104 2.0709 1.02985 2.16045 1.02985H12.8396ZM12.8396 0H2.16045C0.962687 0 0 0.962687 0 2.16045V9.61567C0 10.8134 0.962687 11.7873 2.16045 11.7873H12.8396C14.0261 11.7873 15 10.8134 15 9.61567V2.16045C15 0.962687 14.0261 0 12.8396 0Z" fill="white"/>
</svg>
