<svg width="30" height="29" viewBox="0 0 30 29" fill="none" xmlns="http://www.w3.org/2000/svg">
<path d="M8.30566 24L8.79004 24.2969C10.6025 25.375 12.6494 25.9375 14.7275 25.9375C21.1338 25.9375 26.3369 20.7344 26.3369 14.3125C26.3369 7.90625 21.1338 2.70312 14.7275 2.70312C8.32129 2.70312 3.10254 7.90625 3.10254 14.3125C3.10254 16.4375 3.69629 18.5156 4.80566 20.3438L5.10254 20.8438L3.94629 25.1719L8.30566 24ZM0.118164 29L2.19629 21.25C1.00879 19.1094 0.399414 16.7344 0.399414 14.3125C0.399414 6.42188 6.82129 0 14.7275 0C22.6182 0 29.0557 6.42188 29.0557 14.3125C29.0557 22.2188 22.6182 28.6562 14.7275 28.6562C12.3525 28.6562 10.0088 28.0469 7.91504 26.9062L0.118164 29Z" fill="#EEECDD"/>
<path fill-rule="evenodd" clip-rule="evenodd" d="M20.0547 16.3125C19.4609 15.9531 18.6953 15.5625 18.0078 15.8437C17.4609 16.0625 17.1328 16.9062 16.7891 17.3281C16.6016 17.5469 16.3984 17.5781 16.1172 17.4687C14.1172 16.6719 12.5859 15.3437 11.4766 13.5C11.2891 13.2187 11.3359 12.9844 11.5547 12.7187C11.8828 12.3281 12.3047 11.8906 12.3984 11.3594C12.4922 10.8281 12.2422 10.2031 12.0234 9.73435C11.7422 9.1406 11.4297 8.28123 10.8203 7.93748C10.2734 7.62498 9.53906 7.79685 9.05469 8.2031C8.19531 8.8906 7.78906 9.98435 7.78906 11.0625C7.80469 11.3594 7.83594 11.6719 7.91406 11.9687C8.08594 12.6719 8.41406 13.3437 8.77344 13.9687C9.05469 14.4531 9.36719 14.9062 9.67969 15.3594C10.7578 16.8125 12.0859 18.0781 13.6328 19.0156C14.3984 19.4844 15.2266 19.9062 16.0859 20.1875C17.0547 20.5 17.9141 20.8437 18.9453 20.6406C20.0391 20.4375 21.1172 19.7656 21.5391 18.7031C21.6797 18.4062 21.7422 18.0469 21.6641 17.7187C21.5234 17.0469 20.6016 16.6406 20.0547 16.3125Z" fill="#EEECDD"/>
</svg>
