<svg width="16" height="16" viewBox="0 0 16 16" fill="none" xmlns="http://www.w3.org/2000/svg">
<path d="M5.04607 12.4517L5.3154 12.5967C6.24772 13.1561 7.30435 13.4461 8.3817 13.4461C11.6966 13.4461 14.4107 10.7528 14.4107 7.43785C14.4107 4.10221 11.6966 1.40884 8.3817 1.40884C5.06678 1.40884 2.3527 4.10221 2.3527 7.43785C2.3527 8.53591 2.66347 9.61326 3.24358 10.5456L3.38861 10.8149L2.78778 13.0525L5.04607 12.4517ZM0.798828 15.0414L1.87618 11.0221C1.27535 9.92403 0.943856 8.68094 0.943856 7.43785C0.943856 3.33564 4.27949 0 8.3817 0C12.4839 0 15.7988 3.33564 15.7988 7.43785C15.7988 11.5193 12.4839 14.855 8.3817 14.855C7.15933 14.855 5.93695 14.5442 4.8596 13.9641L0.798828 15.0414Z" fill="white"/>
<path fill-rule="evenodd" clip-rule="evenodd" d="M11.1399 8.45271C10.8499 8.28696 10.4355 8.07978 10.0833 8.22481C9.81394 8.3284 9.62747 8.76348 9.46173 8.99138C9.35814 9.09497 9.25455 9.11569 9.10952 9.05354C8.07361 8.65989 7.28631 7.95547 6.7062 7.00243C6.60261 6.8574 6.62333 6.73309 6.74764 6.60878C6.91339 6.4016 7.14129 6.1737 7.18272 5.88365C7.22416 5.61431 7.09985 5.30354 6.97554 5.05492C6.83051 4.74414 6.68549 4.28834 6.35399 4.1226C6.08466 3.95685 5.69101 4.03972 5.44239 4.24691C5.00731 4.61983 4.77941 5.17923 4.80013 5.73862C4.80013 5.90436 4.82084 6.04939 4.86228 6.21514C4.94515 6.56735 5.1109 6.91956 5.29736 7.25105C5.44239 7.49967 5.60814 7.72757 5.77388 7.97619C6.33328 8.72204 7.01698 9.38503 7.82499 9.86155C8.21863 10.1102 8.65372 10.3173 9.0888 10.4624C9.58604 10.6281 10.0418 10.8146 10.5805 10.711C11.1399 10.5867 11.6993 10.2552 11.9272 9.6958C11.9894 9.55077 12.0308 9.36431 11.9894 9.19856C11.9065 8.84635 11.43 8.63917 11.1399 8.45271Z" fill="white"/>
</svg>
