<svg width="33" height="16" viewBox="0 0 33 16" fill="none" xmlns="http://www.w3.org/2000/svg">
<path d="M4.54009 0L3.28155 7.16901L2.9761 9.01509L2.67231 7.2775L1.3904 0L1.23851 0.021699H0V15.2928H1.3904V8.08037L2.26003 13.0561H3.67214L4.56179 7.97187V15.3145H5.9522V0.021699H4.71536L4.54009 0Z" fill="white"/>
<path d="M12.23 0.0435181H9.64619H8.55957V15.3146H9.94997H12.23V13.9242H9.94997V8.31917H11.7961V6.93044H9.94997V1.43392H12.23V0.0435181Z" fill="white"/>
<path d="M18.3562 0.0435181H14.8359V15.3146H16.2263V8.42934H17.7686V15.3146H19.1807V8.38594L18.4647 7.6899L19.1807 6.97384V0.848049L18.3562 0.0435181ZM17.7686 1.43392V6.99554H16.2263V1.43392H17.7686Z" fill="white"/>
<path d="M22.6107 0.0435181L21.7861 0.848049V14.5117L22.6107 15.3146H25.2613L26.0875 14.5117V8.34087H23.8709V9.73128H24.6754V13.9242H23.1765V1.43392H24.6754V4.38832H26.0875V0.848049L25.2613 0.0435181H22.6107Z" fill="white"/>
<path d="M32.9996 0.0435181H31.5875V13.9242H30.0886V0.0435181H28.6982V14.5117L29.5245 15.3146H32.1751L32.9996 14.5117V0.0435181Z" fill="white"/>
</svg>
