<svg width="71" height="55" viewBox="0 0 71 55" fill="none" xmlns="http://www.w3.org/2000/svg">
<path fill-rule="evenodd" clip-rule="evenodd" d="M41.423 0.0620208L2.71513 0C2.51529 0.130933 2.59798 0.0482384 2.49461 0.28943C2.25342 0.8614 0 11.1362 0 11.1431L12.7901 11.1706C12.7005 12.1354 12.1216 14.0718 11.8666 15.1537C11.5359 16.5182 11.2258 17.862 10.9088 19.2058L7.04969 35.3656C6.80161 36.3993 5.18218 42.9322 5.19596 43.4076L18.4891 43.4214C20.9423 32.995 23.6368 22.4929 26.1176 12.032C26.2624 11.4118 26.2072 11.2533 26.4622 11.1844L38.3082 11.2189L28.0747 54.3026L41.5332 54.3233L44.9168 39.8656C53.1311 39.7346 57.1694 40.596 63.4679 36.606C67.2581 34.2079 70.9931 29.1015 71 22.3413C71 15.5672 66.7826 11.8804 60.5736 10.9915C57.1142 10.5022 43.6488 10.7916 38.9353 10.7158L41.423 0.0620208Z" fill="#25E789"/>
</svg>
